<?xml version="1.0" encoding="utf-8"?>
<!-- Generator: Adobe Illustrator 19.0.0, SVG Export Plug-In . SVG Version: 6.00 Build 0)  -->
<svg version="1.1" id="Livello_1" xmlns="http://www.w3.org/2000/svg" xmlns:xlink="http://www.w3.org/1999/xlink" x="0px" y="0px"
	 viewBox="-373 285.4 512 512" style="enable-background:new -373 285.4 512 512;" xml:space="preserve">
<style type="text/css">
	.st0{fill:#AC182D;}
</style>
<g id="XMLID_14_">
	<rect id="XMLID_103_" x="-215.7" y="398.5" class="st0" width="37.2" height="37.2"/>
	<rect id="XMLID_102_" x="-175.7" y="398.5" class="st0" width="37.2" height="37.2"/>
	<rect id="XMLID_101_" x="-95.7" y="398.5" class="st0" width="37.2" height="37.2"/>
	<rect id="XMLID_100_" x="-55.6" y="398.5" class="st0" width="37.2" height="37.2"/>
	<rect id="XMLID_99_" x="-215.7" y="438.5" class="st0" width="37.2" height="37.2"/>
	<rect id="XMLID_98_" x="-255.7" y="438.5" class="st0" width="37.2" height="37.2"/>
	<rect id="XMLID_97_" x="-175.7" y="438.5" class="st0" width="37.2" height="37.2"/>
	<rect id="XMLID_96_" x="-135.7" y="438.5" class="st0" width="37.2" height="37.2"/>
	<rect id="XMLID_95_" x="-95.7" y="438.5" class="st0" width="37.2" height="37.2"/>
	<rect id="XMLID_94_" x="-55.6" y="438.5" class="st0" width="37.2" height="37.2"/>
	<rect id="XMLID_93_" x="-15.6" y="438.5" class="st0" width="37.2" height="37.2"/>
	<rect id="XMLID_92_" x="-215.7" y="478.5" class="st0" width="37.2" height="37.2"/>
	<rect id="XMLID_91_" x="-255.7" y="478.5" class="st0" width="37.2" height="37.2"/>
	<rect id="XMLID_90_" x="-175.7" y="478.5" class="st0" width="37.2" height="37.2"/>
	<rect id="XMLID_89_" x="-135.7" y="478.5" class="st0" width="37.2" height="37.2"/>
	<rect id="XMLID_88_" x="-95.7" y="478.5" class="st0" width="37.2" height="37.2"/>
	<rect id="XMLID_87_" x="-55.6" y="478.5" class="st0" width="37.2" height="37.2"/>
	<rect id="XMLID_86_" x="-215.7" y="518.5" class="st0" width="37.2" height="37.2"/>
	<rect id="XMLID_85_" x="-175.7" y="518.5" class="st0" width="37.2" height="37.2"/>
	<rect id="XMLID_84_" x="-135.7" y="518.5" class="st0" width="37.2" height="37.2"/>
	<rect id="XMLID_83_" x="-95.7" y="518.5" class="st0" width="37.2" height="37.2"/>
	<rect id="XMLID_82_" x="-175.7" y="558.5" class="st0" width="37.2" height="37.2"/>
	<rect id="XMLID_81_" x="-135.7" y="558.5" class="st0" width="37.2" height="37.2"/>
	<rect id="XMLID_80_" x="-135.7" y="598.5" class="st0" width="37.2" height="37.2"/>
	<rect id="XMLID_79_" x="-95.7" y="558.5" class="st0" width="37.2" height="37.2"/>
	<rect id="XMLID_78_" x="-55.6" y="518.5" class="st0" width="37.2" height="37.2"/>
	<rect id="XMLID_77_" x="-15.6" y="478.5" class="st0" width="37.2" height="37.2"/>
	<g id="XMLID_213_">
		<path id="XMLID_246_" class="st0" d="M-248.4,676.6l-0.9,6.9h-4.4l0.9-6.9h-2.9V672h3.5l0.6-4.6h-2.9v-4.7h3.5l0.9-6.9h4.4
			l-0.9,6.9h3.5l0.9-6.9h4.4l-0.9,6.9h2.9v4.6h-3.5l-0.6,4.6h2.9v4.6h-3.5l-0.9,6.9h-4.4l0.9-6.9L-248.4,676.6L-248.4,676.6z
			 M-244.3,672l0.6-4.6h-3.6l-0.6,4.6H-244.3z"/>
		<path id="XMLID_244_" class="st0" d="M-222.8,660.4c-0.3-0.6-0.8-0.9-1.6-0.9c-0.6,0-1,0.1-1.3,0.4s-0.6,0.8-0.8,1.6
			c-0.2,0.7-0.3,1.7-0.3,3c-0.1,1.3-0.1,2.8-0.1,4.8c0,1.9,0,3.5,0.1,4.8c0.1,1.3,0.2,2.3,0.3,3c0.2,0.7,0.4,1.3,0.8,1.6
			c0.3,0.3,0.8,0.4,1.3,0.4s0.8-0.1,1.1-0.3c0.3-0.2,0.5-0.6,0.7-1.1s0.3-1.2,0.3-2.1c0.1-0.9,0.1-2,0.1-3.4h7.2v2.1
			c0,2-0.3,3.6-0.8,4.9s-1.2,2.3-2.1,3s-1.9,1.2-3,1.5s-2.3,0.4-3.5,0.4c-2.1,0-3.8-0.3-5.1-0.8c-1.3-0.5-2.4-1.3-3.1-2.5
			c-0.7-1.2-1.3-2.7-1.5-4.6c-0.3-1.9-0.4-4.1-0.4-6.8c0-2.7,0.2-5,0.5-6.9c0.3-1.9,0.9-3.4,1.7-4.6c0.8-1.2,1.8-2,3.1-2.5
			c1.3-0.5,2.9-0.8,4.8-0.8c1.7,0,3.1,0.2,4.3,0.6c1.2,0.4,2.1,1,2.8,1.8c0.7,0.8,1.3,1.7,1.6,2.8c0.3,1.1,0.5,2.3,0.5,3.7v1.8h-7.2
			v-1.6C-222.3,662.1-222.4,661-222.8,660.4z"/>
		<path id="XMLID_242_" class="st0" d="M-205.2,675.7c0,1.4,0.2,2.3,0.6,2.8s1,0.7,1.7,0.7s1.3-0.2,1.7-0.7c0.4-0.5,0.6-1.4,0.6-2.8
			v-20.9h7.5v19c0,2-0.2,3.7-0.6,5.1s-1.1,2.4-1.9,3.2s-1.8,1.4-3.1,1.7c-1.2,0.3-2.6,0.4-4.2,0.4s-3-0.1-4.2-0.4s-2.3-0.9-3.1-1.7
			c-0.8-0.8-1.5-1.9-1.9-3.2c-0.4-1.4-0.6-3-0.6-5.1v-19h7.5V675.7z"/>
		<path id="XMLID_239_" class="st0" d="M-190.4,662.5c0.3-1.9,0.9-3.4,1.7-4.6c0.8-1.2,1.8-2,3.1-2.6c1.3-0.5,2.9-0.8,4.8-0.8
			s3.5,0.3,4.8,0.8s2.3,1.4,3.1,2.6c0.8,1.2,1.4,2.7,1.7,4.6c0.3,1.9,0.5,4.1,0.5,6.8s-0.2,4.9-0.5,6.8s-0.9,3.4-1.7,4.6
			c-0.8,1.2-1.8,2-3.1,2.5c-1.3,0.5-2.9,0.8-4.8,0.8s-3.5-0.3-4.8-0.8s-2.3-1.3-3.1-2.5c-0.8-1.2-1.4-2.7-1.7-4.6
			c-0.3-1.9-0.5-4.1-0.5-6.8C-191,666.6-190.8,664.3-190.4,662.5z M-183.2,674c0.1,1.3,0.2,2.3,0.3,3c0.2,0.7,0.4,1.3,0.8,1.6
			c0.3,0.3,0.8,0.4,1.3,0.4c0.6,0,1-0.1,1.3-0.4c0.3-0.3,0.6-0.8,0.8-1.6c0.2-0.7,0.3-1.7,0.3-3c0.1-1.3,0.1-2.8,0.1-4.8
			c0-1.9,0-3.5-0.1-4.8s-0.2-2.3-0.3-3c-0.2-0.7-0.4-1.3-0.8-1.6c-0.3-0.3-0.8-0.4-1.3-0.4c-0.6,0-1,0.1-1.3,0.4
			c-0.3,0.3-0.6,0.8-0.8,1.6c-0.2,0.7-0.3,1.7-0.3,3c-0.1,1.3-0.1,2.8-0.1,4.8C-183.3,671.2-183.3,672.8-183.2,674z"/>
		<path id="XMLID_236_" class="st0" d="M-156.4,654.6c1.5,0,2.7,0.2,3.7,0.6s1.9,0.9,2.5,1.6c0.6,0.7,1.1,1.5,1.4,2.5s0.4,2,0.4,3.1
			c0,2-0.4,3.6-1.2,4.8c-0.8,1.2-2.1,2-3.8,2.2v0.1c1.8,0.2,3.1,0.8,3.8,1.9c0.7,1.1,1,2.7,1,4.7v2.5c0,0.4,0,0.8,0,1.2s0,0.8,0,1.2
			c0,0.4,0.1,0.7,0.1,1c0.1,0.3,0.1,0.5,0.2,0.7s0.2,0.3,0.3,0.5c0.1,0.2,0.3,0.3,0.5,0.4v0.4h-8.2c-0.2-0.4-0.3-0.8-0.4-1.4
			c-0.1-0.5-0.2-1-0.2-1.6c0-0.5-0.1-1-0.1-1.5s0-0.9,0-1.2v-2c0-0.8,0-1.5-0.1-2.1c-0.1-0.5-0.2-1-0.4-1.3
			c-0.2-0.3-0.5-0.5-0.8-0.7c-0.3-0.1-0.7-0.2-1.2-0.2h-2v11.8h-7.7v-29.4h12.2V654.6z M-159.2,667c1.1,0,1.9-0.3,2.4-1
			c0.5-0.6,0.8-1.5,0.8-2.5c0-1.2-0.3-2.1-0.8-2.6s-1.3-0.8-2.5-0.8h-1.5v6.9H-159.2z"/>
		<path id="XMLID_234_" class="st0" d="M-128,654.6v6.3h-9.8v5h9.1v6h-9.1v5.8h10.1v6.3h-17.8v-29.4H-128L-128,654.6z"/>
		<path id="XMLID_231_" class="st0" d="M-123.7,684v-29.4h7.1c3.8,0,6.9,1.2,9.3,3.5c2.3,2.4,3.5,5.4,3.5,9.2v4
			c0,3.8-1.2,6.8-3.5,9.2c-2.3,2.3-5.4,3.5-9.3,3.5H-123.7L-123.7,684z M-119.7,657.7v23.2h3.1c2.7,0,4.9-0.9,6.4-2.7
			c1.6-1.8,2.4-4.1,2.4-6.9v-4.1c0-2.8-0.8-5.1-2.4-6.8c-1.6-1.8-3.7-2.7-6.4-2.7H-119.7z"/>
		<path id="XMLID_229_" class="st0" d="M-98.4,684h-4v-29.4h4V684z"/>
		<path id="XMLID_227_" class="st0" d="M-85.1,654.6l4.9,18.1h0.1v-18.1h7.2V684h-8.4l-5.1-18.2h-0.1V684h-7.2v-29.4H-85.1z"/>
		<path id="XMLID_224_" class="st0" d="M-55.6,654.6l7.2,29.4h-8.2l-0.8-5.1h-6.1l-0.8,5.1h-8l7-29.4H-55.6z M-60.5,660.6l-2.1,12.5
			h4.3L-60.5,660.6L-60.5,660.6z"/>
		<path id="XMLID_221_" class="st0" d="M-36.7,654.6c1.5,0,2.7,0.2,3.8,0.7c1.1,0.5,2,1.1,2.7,1.9s1.2,1.8,1.5,2.9
			c0.3,1.1,0.5,2.3,0.5,3.6c0,3-0.8,5.3-2.5,6.9c-1.6,1.5-4,2.3-7.2,2.3h-2.7v11.2h-7.7v-29.4h11.6V654.6z M-39.1,667.2
			c1,0,1.7-0.3,2.2-0.9c0.5-0.6,0.8-1.5,0.8-2.7c0-2.4-1-3.6-3-3.6h-1.4v7.2H-39.1z"/>
		<path id="XMLID_218_" class="st0" d="M-26.6,662.5c0.3-1.9,0.9-3.4,1.7-4.6c0.8-1.2,1.8-2,3.1-2.6c1.3-0.5,2.9-0.8,4.8-0.8
			c1.9,0,3.5,0.3,4.8,0.8s2.3,1.4,3.1,2.6c0.8,1.2,1.4,2.7,1.7,4.6s0.5,4.1,0.5,6.8s-0.2,4.9-0.5,6.8s-0.9,3.4-1.7,4.6
			c-0.8,1.2-1.8,2-3.1,2.5s-2.9,0.8-4.8,0.8c-1.9,0-3.5-0.3-4.8-0.8s-2.3-1.3-3.1-2.5c-0.8-1.2-1.4-2.7-1.7-4.6
			c-0.3-1.9-0.5-4.1-0.5-6.8C-27.1,666.6-26.9,664.3-26.6,662.5z M-19.4,674c0.1,1.3,0.2,2.3,0.3,3c0.2,0.7,0.4,1.3,0.8,1.6
			c0.3,0.3,0.8,0.4,1.3,0.4c0.6,0,1-0.1,1.3-0.4c0.3-0.3,0.6-0.8,0.8-1.6c0.2-0.7,0.3-1.7,0.3-3c0.1-1.3,0.1-2.8,0.1-4.8
			c0-1.9,0-3.5-0.1-4.8s-0.2-2.3-0.3-3c-0.2-0.7-0.4-1.3-0.8-1.6c-0.3-0.3-0.8-0.4-1.3-0.4c-0.6,0-1,0.1-1.3,0.4
			c-0.3,0.3-0.6,0.8-0.8,1.6c-0.2,0.7-0.3,1.7-0.3,3c-0.1,1.3-0.1,2.8-0.1,4.8C-19.4,671.2-19.4,672.8-19.4,674z"/>
		<path id="XMLID_216_" class="st0" d="M3.3,654.6v23.1h9.4v6.3H-4.4v-29.4H3.3z"/>
		<path id="XMLID_214_" class="st0" d="M21.6,654.6V684h-7.7v-29.4H21.6z"/>
	</g>
</g>
</svg>
